<!DOCTYPE svg PUBLIC "-//W3C//DTD SVG 20010904//EN" "http://www.w3.org/TR/2001/REC-SVG-20010904/DTD/svg10.dtd">
<svg version="1.0" xmlns="http://www.w3.org/2000/svg" width="405px" height="334px" viewBox="0 0 4050 3340" preserveAspectRatio="xMidYMid meet">
<g id="layer101" fill="#e0212a" stroke="none">
 <path d="M2007 3326 c-52 -19 -67 -34 -67 -67 0 -22 7 -32 25 -41 21 -10 32 -8 65 11 29 16 49 21 70 16 37 -8 50 -24 57 -72 l6 -38 -25 22 c-52 48 -141 38 -178 -21 -29 -49 -28 -166 3 -220 44 -78 131 -109 188 -67 25 19 30 20 35 6 7 -18 74 -21 92 -3 16 16 15 156 -2 287 -15 112 -30 142 -85 174 -41 25 -135 31 -184 13z m139 -249 c23 -20 28 -32 28 -76 1 -41 -3 -56 -18 -67 -28 -20 -43 -18 -71 11 -21 20 -25 34 -25 79 0 42 4 57 18 65 26 16 38 13 68 -12z"/>
 <path d="M90 3203 c-106 -39 -120 -308 -22 -416 66 -73 231 -87 290 -24 53 56 26 134 -48 139 -31 3 -36 0 -46 -32 -15 -44 -32 -54 -67 -41 -39 15 -67 80 -67 156 0 74 16 109 52 113 46 5 65 -13 73 -68 l7 -50 42 0 c58 0 66 12 65 95 -2 115 -8 129 -51 133 -27 2 -43 -3 -58 -18 l-21 -21 -26 21 c-25 19 -87 26 -123 13z"/>
 <path d="M511 3192 c-73 -36 -97 -114 -67 -215 30 -102 117 -158 220 -143 92 14 127 97 70 165 -26 32 -101 61 -156 61 -32 0 -34 7 -12 38 18 26 55 29 94 6 46 -28 79 -2 66 52 -13 51 -144 73 -215 36z m117 -204 c17 -15 15 -55 -4 -62 -24 -9 -51 10 -63 45 -6 18 -11 34 -11 36 0 8 64 -9 78 -19z"/>
 <path d="M843 3184 c-25 -26 -26 -26 -19 -140 7 -111 7 -114 -13 -114 -37 0 -26 -75 13 -90 13 -5 28 -27 39 -59 15 -42 22 -51 42 -51 30 0 55 35 55 77 0 32 1 33 40 33 35 0 40 3 40 23 0 36 -27 67 -59 67 -35 0 -41 17 -41 118 l0 72 33 -2 c30 -3 32 -1 30 27 -3 41 -36 65 -90 65 -34 0 -50 -6 -70 -26z"/>
 <path d="M1311 3193 c-24 -16 -24 -17 -17 -157 3 -77 9 -157 12 -178 l6 -37 -58 -3 c-64 -3 -73 -13 -55 -61 l11 -27 176 0 176 0 -7 33 c-11 48 -23 57 -75 57 l-48 0 -5 53 c-4 28 -9 97 -12 152 -3 55 -8 119 -11 143 -5 40 -7 42 -37 42 -18 0 -43 -7 -56 -17z"/>
 <path d="M1604 3201 c-68 -30 -99 -133 -70 -234 28 -95 112 -146 221 -133 92 11 131 61 129 166 -1 79 -27 136 -80 177 -32 23 -48 28 -108 30 -39 2 -80 -1 -92 -6z m139 -113 c11 -14 22 -49 25 -76 4 -41 1 -53 -17 -71 -27 -27 -43 -27 -77 2 -35 30 -46 113 -20 152 22 34 61 30 89 -7z"/>
 <path d="M2421 3192 c-73 -36 -97 -114 -67 -215 30 -102 117 -158 220 -143 92 14 127 97 70 165 -26 32 -101 61 -156 61 -32 0 -34 7 -12 38 18 26 55 29 94 6 46 -28 79 -2 66 52 -13 51 -144 73 -215 36z m117 -204 c17 -15 15 -55 -4 -62 -24 -9 -51 10 -63 45 -6 18 -11 34 -11 36 0 8 64 -9 78 -19z"/>
 <path d="M2753 3184 c-25 -26 -26 -26 -19 -140 7 -111 7 -114 -13 -114 -37 0 -26 -75 13 -90 13 -5 28 -27 39 -59 15 -42 22 -51 42 -51 30 0 55 35 55 77 0 32 1 33 40 33 35 0 40 3 40 23 0 36 -27 67 -59 67 -35 0 -41 17 -41 118 l0 72 33 -2 c30 -3 32 -1 30 27 -3 41 -36 65 -90 65 -34 0 -50 -6 -70 -26z"/>
 <path d="M3000 3192 l-23 -19 12 -154 c6 -85 14 -189 18 -231 l6 -78 38 0 c55 0 69 19 69 95 l0 63 38 -20 c53 -27 118 -20 151 18 24 28 24 30 17 178 -4 82 -9 153 -12 157 -8 14 -68 11 -88 -4 -20 -15 -22 -43 -11 -166 6 -66 4 -80 -10 -95 -11 -11 -25 -14 -39 -10 -44 13 -60 57 -71 197 l-7 87 -33 0 c-18 0 -43 -8 -55 -18z"/>
 <path d="M3461 3192 c-73 -36 -97 -114 -67 -215 30 -102 117 -158 220 -143 92 14 127 97 70 165 -26 32 -101 61 -156 61 -32 0 -34 7 -12 38 18 26 55 29 94 6 46 -28 79 -2 66 52 -13 51 -144 73 -215 36z m117 -204 c17 -15 15 -55 -4 -62 -24 -9 -51 10 -63 45 -6 18 -11 34 -11 36 0 8 64 -9 78 -19z"/>
 <path d="M3769 3189 c-23 -23 -23 -5 -2 -271 l6 -78 38 0 c24 0 46 7 57 18 16 17 18 17 52 -6 67 -45 137 -4 127 73 -7 47 -36 75 -78 75 -26 0 -29 -3 -29 -35 0 -28 -4 -35 -20 -35 -29 0 -38 27 -50 150 -6 62 -13 117 -16 121 -10 17 -64 9 -85 -12z"/>
 <path d="M2113 2490 c-120 -79 -184 -176 -168 -256 8 -44 23 -52 31 -17 4 15 13 42 22 58 15 32 81 105 94 105 5 0 -3 -22 -17 -50 -27 -53 -55 -149 -55 -188 0 -21 3 -23 28 -17 126 31 183 178 146 378 -3 15 -9 27 -12 27 -4 0 -35 -18 -69 -40z"/>
 <path d="M1597 2332 c-41 -47 -63 -148 -76 -344 -8 -132 -10 -141 -48 -220 -22 -46 -92 -172 -156 -280 -65 -109 -117 -206 -117 -217 0 -11 7 -27 16 -35 31 -31 77 16 174 178 72 120 120 176 152 176 19 0 20 -4 15 -47 -3 -27 -25 -97 -48 -158 -50 -131 -58 -175 -35 -194 14 -12 19 -6 42 45 15 33 44 106 66 163 21 57 76 192 122 300 85 199 140 356 152 432 11 69 -16 43 -59 -57 -53 -123 -90 -159 -137 -134 -50 27 -62 124 -35 267 19 97 19 129 1 136 -8 3 -21 -2 -29 -11z"/>
 <path d="M2325 2174 c-55 -9 -139 -35 -186 -60 -69 -34 -102 -82 -103 -147 -1 -90 25 -402 34 -411 5 -5 16 -6 24 -3 12 5 16 22 16 71 0 77 6 96 31 96 28 0 70 -74 82 -145 9 -51 7 -79 -7 -154 -13 -65 -15 -96 -8 -103 25 -25 72 107 88 245 8 72 36 115 94 145 41 21 55 23 150 19 106 -5 124 -9 312 -76 48 -17 94 -28 103 -25 46 18 -20 117 -113 167 -57 31 -196 69 -332 92 -146 24 -149 25 -186 57 -98 86 15 134 288 122 133 -6 148 -5 154 10 12 31 -24 54 -120 76 -88 21 -257 34 -321 24z"/>
 <path d="M1666 2139 c-26 -30 -31 -51 -27 -99 4 -45 38 -62 86 -44 37 15 59 110 35 155 -17 30 -63 25 -94 -12z"/>
 <path d="M2895 2074 c-28 -14 -64 -51 -65 -65 0 -4 19 0 43 8 49 18 135 13 187 -10 l35 -15 -67 -1 c-62 -1 -197 -38 -221 -61 -12 -11 49 -55 96 -70 77 -24 195 18 292 103 l50 44 -45 23 c-115 59 -241 77 -305 44z"/>
 <path d="M1057 2013 c-34 -5 -33 -11 22 -91 47 -69 99 -118 155 -143 48 -22 71 -23 115 -8 36 13 41 29 8 29 -35 0 -123 48 -152 82 -14 17 -24 32 -22 34 2 3 24 -7 48 -20 44 -25 153 -56 196 -56 19 0 21 3 13 31 -14 47 -56 97 -103 121 -34 18 -61 22 -147 24 -58 1 -118 0 -133 -3z"/>
 <path d="M1871 1924 c-28 -36 -26 -56 10 -107 42 -60 58 -167 41 -269 -21 -123 -61 -161 -202 -189 -78 -15 -126 -54 -114 -91 3 -13 8 -25 11 -28 2 -2 61 4 131 15 147 22 167 22 188 4 9 -8 69 -77 134 -154 126 -150 157 -182 166 -172 14 13 -8 56 -66 126 -34 41 -70 91 -81 112 -19 38 -26 89 -11 89 4 0 41 -34 82 -76 134 -135 151 -124 25 16 -138 153 -175 250 -200 513 -15 164 -27 212 -55 227 -28 15 -37 12 -59 -16z"/>
 <path d="M1802 1684 c-50 -61 -67 -156 -37 -214 15 -30 45 -39 72 -22 22 14 45 85 50 157 9 115 -27 149 -85 79z"/>
 <path d="M2137 1643 c-4 -3 -7 -27 -7 -52 0 -45 29 -111 49 -111 35 0 44 90 14 140 -16 28 -41 38 -56 23z"/>
 <path d="M2633 1617 c-12 -17 -40 -88 -63 -156 -59 -179 -97 -242 -135 -228 -20 8 -20 65 1 201 18 127 16 199 -7 204 -18 3 -34 -64 -69 -298 -10 -69 -32 -197 -49 -285 -32 -173 -58 -412 -47 -441 12 -30 24 -3 45 101 21 104 44 148 79 153 73 11 121 -107 122 -298 0 -76 11 -100 37 -84 10 6 21 22 24 35 12 43 9 192 -7 274 -24 128 -27 189 -14 246 18 82 64 237 119 407 39 120 48 159 41 178 -14 35 -50 31 -77 -9z"/>
 <path d="M2845 1526 c-32 -15 -82 -63 -73 -71 3 -3 17 -1 32 5 37 14 143 11 186 -4 l35 -13 -71 -6 c-69 -5 -214 -53 -214 -69 0 -5 21 -22 47 -38 55 -35 126 -40 195 -13 46 17 152 88 181 120 17 20 16 21 -45 48 -119 53 -213 68 -273 41z"/>
 <path d="M910 1211 c-30 -10 -75 -28 -100 -41 l-44 -23 34 -29 c105 -90 213 -137 282 -123 45 9 120 54 115 68 -7 22 -121 60 -202 66 -78 6 -79 6 -46 19 61 22 132 25 181 8 24 -8 46 -14 47 -12 7 7 -41 58 -67 71 -39 20 -132 18 -200 -4z"/>
 <path d="M1735 1186 c-27 -7 -64 -20 -82 -29 -68 -36 -127 -49 -217 -49 -76 0 -94 -3 -125 -22 -88 -56 -189 -216 -136 -216 16 0 49 32 72 72 9 14 28 31 41 38 36 16 74 -14 86 -67 11 -52 -10 -94 -104 -204 -65 -77 -91 -122 -77 -135 11 -11 47 18 147 123 128 134 141 143 206 143 80 0 163 -47 254 -144 227 -242 246 -253 242 -133 -4 88 -111 221 -301 375 -55 45 -97 87 -99 99 -4 27 37 53 97 60 54 6 83 -6 207 -87 70 -46 119 -61 137 -44 20 20 -95 156 -167 198 -52 31 -117 39 -181 22z"/>
 <path d="M2779 992 c33 -42 51 -91 51 -136 0 -29 -1 -28 -24 19 -12 28 -45 72 -71 100 -43 44 -49 47 -56 30 -16 -42 -9 -108 16 -150 27 -48 67 -80 142 -119 l53 -26 6 26 c10 38 -4 162 -22 199 -20 43 -54 73 -92 85 l-32 9 29 -37z"/>
 <path d="M1259 899 c-12 -12 -30 -41 -40 -65 -16 -35 -18 -48 -8 -65 14 -28 62 -19 102 18 34 33 43 64 26 95 -23 43 -48 49 -80 17z"/>
 <path d="M2107 876 c-3 -8 5 -56 19 -107 25 -98 29 -145 15 -168 -10 -16 -23 9 -55 106 -17 52 -40 82 -54 69 -3 -4 11 -57 32 -117 37 -106 38 -114 34 -207 -4 -78 -14 -122 -47 -225 -45 -137 -51 -201 -19 -221 13 -8 24 -6 45 10 27 21 28 24 25 100 -4 76 -2 82 38 162 60 120 96 137 232 112 65 -12 103 -2 113 31 10 30 -10 43 -98 64 -113 26 -136 35 -147 55 -6 11 -26 74 -45 142 -56 195 -73 233 -88 194z"/>
 <path d="M2356 788 c-23 -38 -28 -65 -16 -107 13 -49 38 -66 74 -50 53 25 70 116 29 161 -23 26 -69 23 -87 -4z"/>
 <path d="M1585 701 c-66 -40 -95 -100 -95 -195 0 -66 42 -226 59 -226 5 0 36 29 68 64 108 115 140 219 91 296 l-22 35 -6 -45 c-7 -57 -22 -83 -64 -115 -46 -35 -60 -31 -31 10 22 33 45 112 45 153 0 35 -14 42 -45 23z"/>
 <path d="M2207 338 c-35 -38 -80 -130 -75 -156 9 -48 102 -8 143 62 57 98 5 170 -68 94z"/>
 <path d="M2405 314 c-29 -15 -45 -31 -45 -47 0 -4 9 -3 19 3 23 12 97 12 126 1 15 -6 9 -9 -25 -15 -56 -8 -140 -37 -140 -48 0 -5 15 -17 33 -28 44 -27 102 -25 163 5 51 25 112 80 102 90 -13 13 -145 55 -173 55 -16 0 -43 -7 -60 -16z"/>
 </g>
<g id="layer102" fill="#7b972b" stroke="none">
 <path d="M2007 3326 c-52 -19 -67 -34 -67 -67 0 -22 7 -32 25 -41 21 -10 32 -8 65 11 29 16 49 21 70 16 37 -8 50 -24 57 -72 l6 -38 -25 22 c-52 48 -141 38 -178 -21 -29 -49 -28 -166 3 -220 44 -78 131 -109 188 -67 25 19 30 20 35 6 7 -18 74 -21 92 -3 16 16 15 156 -2 287 -15 112 -30 142 -85 174 -41 25 -135 31 -184 13z m139 -249 c23 -20 28 -32 28 -76 1 -41 -3 -56 -18 -67 -28 -20 -43 -18 -71 11 -21 20 -25 34 -25 79 0 42 4 57 18 65 26 16 38 13 68 -12z"/>
 <path d="M90 3203 c-106 -39 -120 -308 -22 -416 66 -73 231 -87 290 -24 53 56 26 134 -48 139 -31 3 -36 0 -46 -32 -15 -44 -32 -54 -67 -41 -39 15 -67 80 -67 156 0 74 16 109 52 113 46 5 65 -13 73 -68 l7 -50 42 0 c58 0 66 12 65 95 -2 115 -8 129 -51 133 -27 2 -43 -3 -58 -18 l-21 -21 -26 21 c-25 19 -87 26 -123 13z"/>
 <path d="M511 3192 c-73 -36 -97 -114 -67 -215 30 -102 117 -158 220 -143 92 14 127 97 70 165 -26 32 -101 61 -156 61 -32 0 -34 7 -12 38 18 26 55 29 94 6 46 -28 79 -2 66 52 -13 51 -144 73 -215 36z m117 -204 c17 -15 15 -55 -4 -62 -24 -9 -51 10 -63 45 -6 18 -11 34 -11 36 0 8 64 -9 78 -19z"/>
 <path d="M843 3184 c-25 -26 -26 -26 -19 -140 7 -111 7 -114 -13 -114 -37 0 -26 -75 13 -90 13 -5 28 -27 39 -59 15 -42 22 -51 42 -51 30 0 55 35 55 77 0 32 1 33 40 33 35 0 40 3 40 23 0 36 -27 67 -59 67 -35 0 -41 17 -41 118 l0 72 33 -2 c30 -3 32 -1 30 27 -3 41 -36 65 -90 65 -34 0 -50 -6 -70 -26z"/>
 <path d="M1311 3193 c-24 -16 -24 -17 -17 -157 3 -77 9 -157 12 -178 l6 -37 -58 -3 c-64 -3 -73 -13 -55 -61 l11 -27 176 0 176 0 -7 33 c-11 48 -23 57 -75 57 l-48 0 -5 53 c-4 28 -9 97 -12 152 -3 55 -8 119 -11 143 -5 40 -7 42 -37 42 -18 0 -43 -7 -56 -17z"/>
 <path d="M1604 3201 c-68 -30 -99 -133 -70 -234 28 -95 112 -146 221 -133 92 11 131 61 129 166 -1 79 -27 136 -80 177 -32 23 -48 28 -108 30 -39 2 -80 -1 -92 -6z m139 -113 c11 -14 22 -49 25 -76 4 -41 1 -53 -17 -71 -27 -27 -43 -27 -77 2 -35 30 -46 113 -20 152 22 34 61 30 89 -7z"/>
 <path d="M2421 3192 c-73 -36 -97 -114 -67 -215 30 -102 117 -158 220 -143 92 14 127 97 70 165 -26 32 -101 61 -156 61 -32 0 -34 7 -12 38 18 26 55 29 94 6 46 -28 79 -2 66 52 -13 51 -144 73 -215 36z m117 -204 c17 -15 15 -55 -4 -62 -24 -9 -51 10 -63 45 -6 18 -11 34 -11 36 0 8 64 -9 78 -19z"/>
 <path d="M2753 3184 c-25 -26 -26 -26 -19 -140 7 -111 7 -114 -13 -114 -37 0 -26 -75 13 -90 13 -5 28 -27 39 -59 15 -42 22 -51 42 -51 30 0 55 35 55 77 0 32 1 33 40 33 35 0 40 3 40 23 0 36 -27 67 -59 67 -35 0 -41 17 -41 118 l0 72 33 -2 c30 -3 32 -1 30 27 -3 41 -36 65 -90 65 -34 0 -50 -6 -70 -26z"/>
 <path d="M3000 3192 l-23 -19 12 -154 c6 -85 14 -189 18 -231 l6 -78 38 0 c55 0 69 19 69 95 l0 63 38 -20 c53 -27 118 -20 151 18 24 28 24 30 17 178 -4 82 -9 153 -12 157 -8 14 -68 11 -88 -4 -20 -15 -22 -43 -11 -166 6 -66 4 -80 -10 -95 -11 -11 -25 -14 -39 -10 -44 13 -60 57 -71 197 l-7 87 -33 0 c-18 0 -43 -8 -55 -18z"/>
 <path d="M3461 3192 c-73 -36 -97 -114 -67 -215 30 -102 117 -158 220 -143 92 14 127 97 70 165 -26 32 -101 61 -156 61 -32 0 -34 7 -12 38 18 26 55 29 94 6 46 -28 79 -2 66 52 -13 51 -144 73 -215 36z m117 -204 c17 -15 15 -55 -4 -62 -24 -9 -51 10 -63 45 -6 18 -11 34 -11 36 0 8 64 -9 78 -19z"/>
 <path d="M3769 3189 c-23 -23 -23 -5 -2 -271 l6 -78 38 0 c24 0 46 7 57 18 16 17 18 17 52 -6 67 -45 137 -4 127 73 -7 47 -36 75 -78 75 -26 0 -29 -3 -29 -35 0 -28 -4 -35 -20 -35 -29 0 -38 27 -50 150 -6 62 -13 117 -16 121 -10 17 -64 9 -85 -12z"/>
 <path d="M2113 2490 c-120 -79 -184 -176 -168 -256 8 -44 23 -52 31 -17 4 15 13 42 22 58 15 32 81 105 94 105 5 0 -3 -22 -17 -50 -27 -53 -55 -149 -55 -188 0 -21 3 -23 28 -17 126 31 183 178 146 378 -3 15 -9 27 -12 27 -4 0 -35 -18 -69 -40z"/>
 <path d="M2325 2174 c-55 -9 -139 -35 -186 -60 -69 -34 -102 -82 -103 -147 -1 -90 25 -402 34 -411 5 -5 16 -6 24 -3 12 5 16 22 16 71 0 77 6 96 31 96 28 0 70 -74 82 -145 9 -51 7 -79 -7 -154 -13 -65 -15 -96 -8 -103 25 -25 72 107 88 245 8 72 36 115 94 145 41 21 55 23 150 19 106 -5 124 -9 312 -76 48 -17 94 -28 103 -25 46 18 -20 117 -113 167 -57 31 -196 69 -332 92 -146 24 -149 25 -186 57 -98 86 15 134 288 122 133 -6 148 -5 154 10 12 31 -24 54 -120 76 -88 21 -257 34 -321 24z"/>
 <path d="M2895 2074 c-28 -14 -64 -51 -65 -65 0 -4 19 0 43 8 49 18 135 13 187 -10 l35 -15 -67 -1 c-62 -1 -197 -38 -221 -61 -12 -11 49 -55 96 -70 77 -24 195 18 292 103 l50 44 -45 23 c-115 59 -241 77 -305 44z"/>
 <path d="M1523 2005 c0 -27 2 -38 4 -22 2 15 2 37 0 50 -2 12 -4 0 -4 -28z"/>
 <path d="M1057 2013 c-34 -5 -33 -11 22 -91 47 -69 99 -118 155 -143 48 -22 71 -23 115 -8 36 13 41 29 8 29 -35 0 -123 48 -152 82 -14 17 -24 32 -22 34 2 3 24 -7 48 -20 44 -25 153 -56 196 -56 19 0 21 3 13 31 -14 47 -56 97 -103 121 -34 18 -61 22 -147 24 -58 1 -118 0 -133 -3z"/>
 <path d="M1871 1924 c-28 -36 -26 -56 10 -107 42 -60 58 -167 41 -269 -21 -123 -61 -161 -202 -189 -78 -15 -126 -54 -114 -91 3 -13 8 -25 11 -28 2 -2 61 4 131 15 147 22 167 22 188 4 9 -8 69 -77 134 -154 126 -150 157 -182 166 -172 14 13 -8 56 -66 126 -34 41 -70 91 -81 112 -19 38 -26 89 -11 89 4 0 41 -34 82 -76 134 -135 151 -124 25 16 -138 153 -175 250 -200 513 -15 164 -27 212 -55 227 -28 15 -37 12 -59 -16z"/>
 <path d="M1802 1684 c-50 -61 -67 -156 -37 -214 15 -30 45 -39 72 -22 22 14 45 85 50 157 9 115 -27 149 -85 79z"/>
 <path d="M2137 1643 c-4 -3 -7 -27 -7 -52 0 -45 29 -111 49 -111 35 0 44 90 14 140 -16 28 -41 38 -56 23z"/>
 <path d="M2633 1617 c-12 -17 -40 -88 -63 -156 -59 -179 -97 -242 -135 -228 -20 8 -20 65 1 201 18 127 16 199 -7 204 -18 3 -34 -64 -69 -298 -10 -69 -32 -197 -49 -285 -32 -173 -58 -412 -47 -441 12 -30 24 -3 45 101 21 104 44 148 79 153 73 11 121 -107 122 -298 0 -76 11 -100 37 -84 10 6 21 22 24 35 12 43 9 192 -7 274 -24 128 -27 189 -14 246 18 82 64 237 119 407 39 120 48 159 41 178 -14 35 -50 31 -77 -9z"/>
 <path d="M2845 1526 c-32 -15 -82 -63 -73 -71 3 -3 17 -1 32 5 37 14 143 11 186 -4 l35 -13 -71 -6 c-69 -5 -214 -53 -214 -69 0 -5 21 -22 47 -38 55 -35 126 -40 195 -13 46 17 152 88 181 120 17 20 16 21 -45 48 -119 53 -213 68 -273 41z"/>
 <path d="M910 1211 c-30 -10 -75 -28 -100 -41 l-44 -23 34 -29 c105 -90 213 -137 282 -123 45 9 120 54 115 68 -7 22 -121 60 -202 66 -78 6 -79 6 -46 19 61 22 132 25 181 8 24 -8 46 -14 47 -12 7 7 -41 58 -67 71 -39 20 -132 18 -200 -4z"/>
 <path d="M1735 1186 c-27 -7 -64 -20 -82 -29 -68 -36 -127 -49 -217 -49 -76 0 -94 -3 -125 -22 -88 -56 -189 -216 -136 -216 16 0 49 32 72 72 9 14 28 31 41 38 36 16 74 -14 86 -67 11 -52 -10 -94 -104 -204 -65 -77 -91 -122 -77 -135 11 -11 47 18 147 123 128 134 141 143 206 143 80 0 163 -47 254 -144 227 -242 246 -253 242 -133 -4 88 -111 221 -301 375 -55 45 -97 87 -99 99 -4 27 37 53 97 60 54 6 83 -6 207 -87 70 -46 119 -61 137 -44 20 20 -95 156 -167 198 -52 31 -117 39 -181 22z"/>
 <path d="M2779 992 c33 -42 51 -91 51 -136 0 -29 -1 -28 -24 19 -12 28 -45 72 -71 100 -43 44 -49 47 -56 30 -16 -42 -9 -108 16 -150 27 -48 67 -80 142 -119 l53 -26 6 26 c10 38 -4 162 -22 199 -20 43 -54 73 -92 85 l-32 9 29 -37z"/>
 <path d="M1259 899 c-12 -12 -30 -41 -40 -65 -16 -35 -18 -48 -8 -65 14 -28 62 -19 102 18 34 33 43 64 26 95 -23 43 -48 49 -80 17z"/>
 <path d="M2107 876 c-3 -8 5 -56 19 -107 25 -98 29 -145 15 -168 -10 -16 -23 9 -55 106 -17 52 -40 82 -54 69 -3 -4 11 -57 32 -117 37 -106 38 -114 34 -207 -4 -78 -14 -122 -47 -225 -45 -137 -51 -201 -19 -221 13 -8 24 -6 45 10 27 21 28 24 25 100 -4 76 -2 82 38 162 60 120 96 137 232 112 65 -12 103 -2 113 31 10 30 -10 43 -98 64 -113 26 -136 35 -147 55 -6 11 -26 74 -45 142 -56 195 -73 233 -88 194z"/>
 <path d="M2356 788 c-23 -38 -28 -65 -16 -107 13 -49 38 -66 74 -50 53 25 70 116 29 161 -23 26 -69 23 -87 -4z"/>
 <path d="M1585 701 c-66 -40 -95 -100 -95 -195 0 -66 42 -226 59 -226 5 0 36 29 68 64 108 115 140 219 91 296 l-22 35 -6 -45 c-7 -57 -22 -83 -64 -115 -46 -35 -60 -31 -31 10 22 33 45 112 45 153 0 35 -14 42 -45 23z"/>
 <path d="M2207 338 c-35 -38 -80 -130 -75 -156 9 -48 102 -8 143 62 57 98 5 170 -68 94z"/>
 <path d="M2405 314 c-29 -15 -45 -31 -45 -47 0 -4 9 -3 19 3 23 12 97 12 126 1 15 -6 9 -9 -25 -15 -56 -8 -140 -37 -140 -48 0 -5 15 -17 33 -28 44 -27 102 -25 163 5 51 25 112 80 102 90 -13 13 -145 55 -173 55 -16 0 -43 -7 -60 -16z"/>
 </g>
<g id="layer103" fill="#f08e29" stroke="none">
 <path d="M2007 3326 c-52 -19 -67 -34 -67 -67 0 -22 7 -32 25 -41 21 -10 32 -8 65 11 29 16 49 21 70 16 37 -8 50 -24 57 -72 l6 -38 -25 22 c-52 48 -141 38 -178 -21 -29 -49 -28 -166 3 -220 44 -78 131 -109 188 -67 25 19 30 20 35 6 7 -18 74 -21 92 -3 16 16 15 156 -2 287 -15 112 -30 142 -85 174 -41 25 -135 31 -184 13z m139 -249 c23 -20 28 -32 28 -76 1 -41 -3 -56 -18 -67 -28 -20 -43 -18 -71 11 -21 20 -25 34 -25 79 0 42 4 57 18 65 26 16 38 13 68 -12z"/>
 <path d="M90 3203 c-106 -39 -120 -308 -22 -416 66 -73 231 -87 290 -24 53 56 26 134 -48 139 -31 3 -36 0 -46 -32 -15 -44 -32 -54 -67 -41 -39 15 -67 80 -67 156 0 74 16 109 52 113 46 5 65 -13 73 -68 l7 -50 42 0 c58 0 66 12 65 95 -2 115 -8 129 -51 133 -27 2 -43 -3 -58 -18 l-21 -21 -26 21 c-25 19 -87 26 -123 13z"/>
 <path d="M511 3192 c-73 -36 -97 -114 -67 -215 30 -102 117 -158 220 -143 92 14 127 97 70 165 -26 32 -101 61 -156 61 -32 0 -34 7 -12 38 18 26 55 29 94 6 46 -28 79 -2 66 52 -13 51 -144 73 -215 36z m117 -204 c17 -15 15 -55 -4 -62 -24 -9 -51 10 -63 45 -6 18 -11 34 -11 36 0 8 64 -9 78 -19z"/>
 <path d="M843 3184 c-25 -26 -26 -26 -19 -140 7 -111 7 -114 -13 -114 -37 0 -26 -75 13 -90 13 -5 28 -27 39 -59 15 -42 22 -51 42 -51 30 0 55 35 55 77 0 32 1 33 40 33 35 0 40 3 40 23 0 36 -27 67 -59 67 -35 0 -41 17 -41 118 l0 72 33 -2 c30 -3 32 -1 30 27 -3 41 -36 65 -90 65 -34 0 -50 -6 -70 -26z"/>
 <path d="M1311 3193 c-24 -16 -24 -17 -17 -157 3 -77 9 -157 12 -178 l6 -37 -58 -3 c-64 -3 -73 -13 -55 -61 l11 -27 176 0 176 0 -7 33 c-11 48 -23 57 -75 57 l-48 0 -5 53 c-4 28 -9 97 -12 152 -3 55 -8 119 -11 143 -5 40 -7 42 -37 42 -18 0 -43 -7 -56 -17z"/>
 <path d="M1604 3201 c-68 -30 -99 -133 -70 -234 28 -95 112 -146 221 -133 92 11 131 61 129 166 -1 79 -27 136 -80 177 -32 23 -48 28 -108 30 -39 2 -80 -1 -92 -6z m139 -113 c11 -14 22 -49 25 -76 4 -41 1 -53 -17 -71 -27 -27 -43 -27 -77 2 -35 30 -46 113 -20 152 22 34 61 30 89 -7z"/>
 <path d="M2421 3192 c-73 -36 -97 -114 -67 -215 30 -102 117 -158 220 -143 92 14 127 97 70 165 -26 32 -101 61 -156 61 -32 0 -34 7 -12 38 18 26 55 29 94 6 46 -28 79 -2 66 52 -13 51 -144 73 -215 36z m117 -204 c17 -15 15 -55 -4 -62 -24 -9 -51 10 -63 45 -6 18 -11 34 -11 36 0 8 64 -9 78 -19z"/>
 <path d="M2753 3184 c-25 -26 -26 -26 -19 -140 7 -111 7 -114 -13 -114 -37 0 -26 -75 13 -90 13 -5 28 -27 39 -59 15 -42 22 -51 42 -51 30 0 55 35 55 77 0 32 1 33 40 33 35 0 40 3 40 23 0 36 -27 67 -59 67 -35 0 -41 17 -41 118 l0 72 33 -2 c30 -3 32 -1 30 27 -3 41 -36 65 -90 65 -34 0 -50 -6 -70 -26z"/>
 <path d="M3000 3192 l-23 -19 12 -154 c6 -85 14 -189 18 -231 l6 -78 38 0 c55 0 69 19 69 95 l0 63 38 -20 c53 -27 118 -20 151 18 24 28 24 30 17 178 -4 82 -9 153 -12 157 -8 14 -68 11 -88 -4 -20 -15 -22 -43 -11 -166 6 -66 4 -80 -10 -95 -11 -11 -25 -14 -39 -10 -44 13 -60 57 -71 197 l-7 87 -33 0 c-18 0 -43 -8 -55 -18z"/>
 <path d="M3461 3192 c-73 -36 -97 -114 -67 -215 30 -102 117 -158 220 -143 92 14 127 97 70 165 -26 32 -101 61 -156 61 -32 0 -34 7 -12 38 18 26 55 29 94 6 46 -28 79 -2 66 52 -13 51 -144 73 -215 36z m117 -204 c17 -15 15 -55 -4 -62 -24 -9 -51 10 -63 45 -6 18 -11 34 -11 36 0 8 64 -9 78 -19z"/>
 <path d="M3769 3189 c-23 -23 -23 -5 -2 -271 l6 -78 38 0 c24 0 46 7 57 18 16 17 18 17 52 -6 67 -45 137 -4 127 73 -7 47 -36 75 -78 75 -26 0 -29 -3 -29 -35 0 -28 -4 -35 -20 -35 -29 0 -38 27 -50 150 -6 62 -13 117 -16 121 -10 17 -64 9 -85 -12z"/>
 <path d="M2203 2385 c0 -22 2 -30 4 -17 2 12 2 30 0 40 -3 9 -5 -1 -4 -23z"/>
 <path d="M2325 2174 c-55 -9 -139 -35 -186 -60 -69 -34 -102 -82 -103 -147 -1 -90 25 -402 34 -411 5 -5 16 -6 24 -3 12 5 16 22 16 71 0 77 6 96 31 96 28 0 70 -74 82 -145 9 -51 7 -79 -7 -154 -13 -65 -15 -96 -8 -103 25 -25 72 107 88 245 8 72 36 115 94 145 41 21 55 23 150 19 106 -5 124 -9 312 -76 48 -17 94 -28 103 -25 46 18 -20 117 -113 167 -57 31 -196 69 -332 92 -146 24 -149 25 -186 57 -98 86 15 134 288 122 133 -6 148 -5 154 10 12 31 -24 54 -120 76 -88 21 -257 34 -321 24z"/>
 <path d="M1523 2005 c0 -27 2 -38 4 -22 2 15 2 37 0 50 -2 12 -4 0 -4 -28z"/>
 <path d="M1871 1924 c-28 -36 -26 -56 10 -107 42 -60 58 -167 41 -269 -21 -123 -61 -161 -202 -189 -78 -15 -126 -54 -114 -91 3 -13 8 -25 11 -28 2 -2 61 4 131 15 147 22 167 22 188 4 9 -8 69 -77 134 -154 126 -150 157 -182 166 -172 14 13 -8 56 -66 126 -34 41 -70 91 -81 112 -19 38 -26 89 -11 89 4 0 41 -34 82 -76 134 -135 151 -124 25 16 -138 153 -175 250 -200 513 -15 164 -27 212 -55 227 -28 15 -37 12 -59 -16z"/>
 <path d="M1802 1684 c-50 -61 -67 -156 -37 -214 15 -30 45 -39 72 -22 22 14 45 85 50 157 9 115 -27 149 -85 79z"/>
 <path d="M2137 1643 c-4 -3 -7 -27 -7 -52 0 -45 29 -111 49 -111 35 0 44 90 14 140 -16 28 -41 38 -56 23z"/>
 <path d="M2633 1617 c-12 -17 -40 -88 -63 -156 -59 -179 -97 -242 -135 -228 -20 8 -20 65 1 201 18 127 16 199 -7 204 -18 3 -34 -64 -69 -298 -10 -69 -32 -197 -49 -285 -32 -173 -58 -412 -47 -441 12 -30 24 -3 45 101 21 104 44 148 79 153 73 11 121 -107 122 -298 0 -76 11 -100 37 -84 10 6 21 22 24 35 12 43 9 192 -7 274 -24 128 -27 189 -14 246 18 82 64 237 119 407 39 120 48 159 41 178 -14 35 -50 31 -77 -9z"/>
 <path d="M1735 1186 c-27 -7 -64 -20 -82 -29 -68 -36 -127 -49 -217 -49 -76 0 -94 -3 -125 -22 -88 -56 -189 -216 -136 -216 16 0 49 32 72 72 9 14 28 31 41 38 36 16 74 -14 86 -67 11 -52 -10 -94 -104 -204 -65 -77 -91 -122 -77 -135 11 -11 47 18 147 123 128 134 141 143 206 143 80 0 163 -47 254 -144 227 -242 246 -253 242 -133 -4 88 -111 221 -301 375 -55 45 -97 87 -99 99 -4 27 37 53 97 60 54 6 83 -6 207 -87 70 -46 119 -61 137 -44 20 20 -95 156 -167 198 -52 31 -117 39 -181 22z"/>
 <path d="M1259 899 c-12 -12 -30 -41 -40 -65 -16 -35 -18 -48 -8 -65 14 -28 62 -19 102 18 34 33 43 64 26 95 -23 43 -48 49 -80 17z"/>
 <path d="M2107 876 c-3 -8 5 -56 19 -107 25 -98 29 -145 15 -168 -10 -16 -23 9 -55 106 -17 52 -40 82 -54 69 -3 -4 11 -57 32 -117 37 -106 38 -114 34 -207 -4 -78 -14 -122 -47 -225 -45 -137 -51 -201 -19 -221 13 -8 24 -6 45 10 27 21 28 24 25 100 -4 76 -2 82 38 162 60 120 96 137 232 112 65 -12 103 -2 113 31 10 30 -10 43 -98 64 -113 26 -136 35 -147 55 -6 11 -26 74 -45 142 -56 195 -73 233 -88 194z"/>
 <path d="M2356 788 c-23 -38 -28 -65 -16 -107 13 -49 38 -66 74 -50 53 25 70 116 29 161 -23 26 -69 23 -87 -4z"/>
 <path d="M1622 670 c0 -19 2 -27 5 -17 2 9 2 25 0 35 -3 9 -5 1 -5 -18z"/>
 <path d="M2207 338 c-35 -38 -80 -130 -75 -156 9 -48 102 -8 143 62 57 98 5 170 -68 94z"/>
 </g>
<g id="layer104" fill="#8e8f8f" stroke="none">
 <path d="M2203 2385 c0 -22 2 -30 4 -17 2 12 2 30 0 40 -3 9 -5 -1 -4 -23z"/>
 <path d="M1523 2005 c0 -27 2 -38 4 -22 2 15 2 37 0 50 -2 12 -4 0 -4 -28z"/>
 <path d="M1871 1924 c-28 -36 -26 -56 10 -107 42 -60 58 -167 41 -269 -21 -123 -61 -161 -202 -189 -78 -15 -126 -54 -114 -91 3 -13 8 -25 11 -28 2 -2 61 4 131 15 147 22 167 22 188 4 9 -8 69 -77 134 -154 126 -150 157 -182 166 -172 14 13 -8 56 -66 126 -34 41 -70 91 -81 112 -19 38 -26 89 -11 89 4 0 41 -34 82 -76 134 -135 151 -124 25 16 -138 153 -175 250 -200 513 -15 164 -27 212 -55 227 -28 15 -37 12 -59 -16z"/>
 <path d="M1802 1684 c-50 -61 -67 -156 -37 -214 15 -30 45 -39 72 -22 22 14 45 85 50 157 9 115 -27 149 -85 79z"/>
 <path d="M2633 1617 c-12 -17 -40 -88 -63 -156 -59 -179 -97 -242 -135 -228 -20 8 -20 65 1 201 18 127 16 199 -7 204 -18 3 -34 -64 -69 -298 -10 -69 -32 -197 -49 -285 -32 -173 -58 -412 -47 -441 12 -30 24 -3 45 101 21 104 44 148 79 153 73 11 121 -107 122 -298 0 -76 11 -100 37 -84 10 6 21 22 24 35 12 43 9 192 -7 274 -24 128 -27 189 -14 246 18 82 64 237 119 407 39 120 48 159 41 178 -14 35 -50 31 -77 -9z"/>
 <path d="M1735 1186 c-27 -7 -64 -20 -82 -29 -68 -36 -127 -49 -217 -49 -76 0 -94 -3 -125 -22 -88 -56 -189 -216 -136 -216 16 0 49 32 72 72 9 14 28 31 41 38 36 16 74 -14 86 -67 11 -52 -10 -94 -104 -204 -65 -77 -91 -122 -77 -135 11 -11 47 18 147 123 128 134 141 143 206 143 80 0 163 -47 254 -144 227 -242 246 -253 242 -133 -4 88 -111 221 -301 375 -55 45 -97 87 -99 99 -4 27 37 53 97 60 54 6 83 -6 207 -87 70 -46 119 -61 137 -44 20 20 -95 156 -167 198 -52 31 -117 39 -181 22z"/>
 <path d="M1259 899 c-12 -12 -30 -41 -40 -65 -16 -35 -18 -48 -8 -65 14 -28 62 -19 102 18 34 33 43 64 26 95 -23 43 -48 49 -80 17z"/>
 <path d="M2108 872 c-3 -10 3 -45 14 -78 23 -74 35 -189 20 -198 -13 -8 -23 10 -52 96 -21 64 -44 98 -56 85 -3 -3 9 -45 26 -94 61 -171 59 -250 -10 -467 -44 -140 -50 -190 -22 -204 20 -11 52 -1 71 21 9 12 10 28 4 59 -11 55 0 118 33 185 52 108 100 139 185 122 103 -20 169 -6 169 36 0 20 -22 29 -134 56 -76 18 -102 29 -114 46 -8 13 -32 83 -52 156 -57 198 -70 227 -82 179z"/>
 <path d="M2356 788 c-23 -38 -28 -65 -16 -107 13 -49 38 -66 74 -50 53 25 70 116 29 161 -23 26 -69 23 -87 -4z"/>
 <path d="M1622 670 c0 -19 2 -27 5 -17 2 9 2 25 0 35 -3 9 -5 1 -5 -18z"/>
 <path d="M2205 326 c-62 -64 -91 -166 -48 -166 35 0 104 55 129 102 26 51 13 108 -25 108 -8 0 -33 -20 -56 -44z"/>
 </g>
<g id="layer105" fill="#5f9fd4" stroke="none">
 <path d="M1523 2005 c0 -27 2 -38 4 -22 2 15 2 37 0 50 -2 12 -4 0 -4 -28z"/>
 <path d="M2633 1617 c-12 -17 -40 -88 -63 -156 -59 -179 -97 -242 -135 -228 -20 8 -20 65 1 201 18 127 16 199 -7 204 -18 3 -34 -64 -69 -298 -10 -69 -32 -197 -49 -285 -32 -173 -58 -412 -47 -441 12 -30 24 -3 45 101 21 104 44 148 79 153 73 11 121 -107 122 -298 0 -76 11 -100 37 -84 10 6 21 22 24 35 12 43 9 192 -7 274 -24 128 -27 189 -14 246 18 82 64 237 119 407 39 120 48 159 41 178 -14 35 -50 31 -77 -9z"/>
 <path d="M1735 1186 c-27 -7 -64 -20 -82 -29 -66 -35 -127 -49 -212 -49 -63 0 -95 -5 -121 -18 -85 -43 -201 -220 -145 -220 16 0 49 32 72 72 9 14 28 31 41 38 36 16 74 -14 86 -67 11 -52 -10 -94 -104 -204 -65 -77 -91 -122 -77 -135 11 -11 47 18 147 123 128 134 141 143 206 143 80 0 163 -47 254 -144 227 -242 246 -253 242 -133 -4 88 -111 221 -301 375 -55 45 -97 87 -99 99 -4 27 37 53 97 60 54 6 83 -6 207 -87 70 -46 119 -61 137 -44 20 20 -95 156 -167 198 -52 31 -117 39 -181 22z"/>
 <path d="M1259 899 c-12 -12 -30 -41 -40 -65 -16 -35 -18 -48 -8 -65 14 -28 62 -19 102 18 34 33 43 64 26 95 -23 43 -48 49 -80 17z"/>
 <path d="M2108 872 c-3 -10 3 -45 14 -78 23 -74 35 -189 20 -198 -13 -8 -23 10 -52 96 -21 64 -44 98 -56 85 -3 -3 9 -45 26 -94 61 -171 59 -250 -10 -467 -44 -140 -50 -190 -22 -204 20 -11 52 -1 71 21 9 12 10 28 4 59 -11 55 0 118 33 185 52 108 100 139 185 122 103 -20 169 -6 169 36 0 20 -22 29 -134 56 -76 18 -102 29 -114 46 -8 13 -32 83 -52 156 -57 198 -70 227 -82 179z"/>
 <path d="M2356 788 c-23 -38 -28 -65 -16 -107 13 -49 38 -66 74 -50 53 25 70 116 29 161 -23 26 -69 23 -87 -4z"/>
 <path d="M2205 326 c-62 -64 -91 -166 -48 -166 35 0 104 55 129 102 26 51 13 108 -25 108 -8 0 -33 -20 -56 -44z"/>
 </g>
<g id="layer106" fill="#f8d323" stroke="none">
 <path d="M1523 2005 c0 -27 2 -38 4 -22 2 15 2 37 0 50 -2 12 -4 0 -4 -28z"/>
 <path d="M2633 1617 c-12 -17 -40 -88 -63 -156 -59 -179 -97 -242 -135 -228 -20 8 -20 65 1 201 18 127 16 199 -7 204 -18 3 -34 -64 -69 -298 -10 -69 -32 -197 -49 -285 -32 -173 -58 -412 -47 -441 12 -30 24 -3 45 101 21 104 44 148 79 153 73 11 121 -107 122 -298 0 -76 11 -100 37 -84 10 6 21 22 24 35 12 43 9 192 -7 274 -24 128 -27 189 -14 246 18 82 64 237 119 407 39 120 48 159 41 178 -14 35 -50 31 -77 -9z"/>
 <path d="M2108 872 c-3 -10 3 -45 14 -78 23 -74 35 -189 20 -198 -13 -8 -23 10 -52 96 -21 64 -44 98 -56 85 -3 -3 9 -45 26 -94 61 -171 59 -250 -10 -467 -44 -140 -50 -190 -22 -204 20 -11 52 -1 71 21 9 12 10 28 4 59 -11 55 0 118 33 185 52 108 100 139 185 122 103 -20 169 -6 169 36 0 20 -22 29 -134 56 -76 18 -102 29 -114 46 -8 13 -32 83 -52 156 -57 198 -70 227 -82 179z"/>
 <path d="M2356 788 c-23 -38 -28 -65 -16 -107 13 -49 38 -66 74 -50 53 25 70 116 29 161 -23 26 -69 23 -87 -4z"/>
 <path d="M2205 326 c-62 -64 -91 -166 -48 -166 35 0 104 55 129 102 26 51 13 108 -25 108 -8 0 -33 -20 -56 -44z"/>
 </g>
<g id="layer107" fill="#ef56ab" stroke="none">
 <path d="M1523 2005 c0 -27 2 -38 4 -22 2 15 2 37 0 50 -2 12 -4 0 -4 -28z"/>
 <path d="M2633 1617 c-12 -17 -40 -88 -63 -156 -59 -179 -97 -242 -135 -228 -20 8 -20 65 1 201 18 127 16 199 -7 204 -18 3 -34 -64 -69 -298 -10 -69 -32 -197 -49 -285 -32 -173 -58 -412 -47 -441 12 -30 24 -3 45 101 21 104 44 148 79 153 73 11 121 -107 122 -298 0 -76 11 -100 37 -84 10 6 21 22 24 35 12 43 9 192 -7 274 -24 128 -27 189 -14 246 18 82 64 237 119 407 39 120 48 159 41 178 -14 35 -50 31 -77 -9z"/>
 <path d="M2356 788 c-23 -38 -28 -65 -16 -107 13 -49 38 -66 74 -50 53 25 70 116 29 161 -23 26 -69 23 -87 -4z"/>
 </g>

</svg>